<svg width="28" height="28" viewBox="0 0 28 28" fill="none" xmlns="http://www.w3.org/2000/svg">
<path d="M13.5972 21.8848C14.0222 21.8848 14.3787 21.7408 14.6667 21.4528C14.9547 21.1648 15.0982 20.8088 15.0972 20.3848C15.0962 19.9608 14.9522 19.6048 14.6652 19.3168C14.3782 19.0288 14.0222 18.8848 13.5972 18.8848C13.1722 18.8848 12.8162 19.0288 12.5292 19.3168C12.2422 19.6048 12.0982 19.9608 12.0972 20.3848C12.0962 20.8088 12.2402 21.1653 12.5292 21.4543C12.8182 21.7433 13.1742 21.8868 13.5972 21.8848ZM12.0972 15.8848H15.0972V6.88477H12.0972V15.8848ZM7.97217 27.8848L0.097168 20.0098V8.75977L7.97217 0.884766H19.2222L27.0972 8.75977V20.0098L19.2222 27.8848H7.97217ZM9.24717 24.8848H17.9472L24.0972 18.7348V10.0348L17.9472 3.88477H9.24717L3.09717 10.0348V18.7348L9.24717 24.8848Z" fill="black"/>
</svg>
