<svg width="14" height="14" viewBox="0 0 14 14" fill="none" xmlns="http://www.w3.org/2000/svg">
<path d="M12 7.38133L7 12.3333L2 7.38133C1.6702 7.06041 1.41043 6.67467 1.23703 6.24842C1.06364 5.82217 0.980376 5.36463 0.992493 4.90462C1.00461 4.44461 1.11184 3.99209 1.30744 3.57555C1.50304 3.15902 1.78276 2.7875 2.12899 2.48438C2.47523 2.18127 2.88047 1.95312 3.31921 1.81432C3.75795 1.67551 4.22067 1.62905 4.67825 1.67786C5.13582 1.72668 5.57833 1.8697 5.97792 2.09793C6.3775 2.32617 6.7255 2.63466 7 3.004C7.27569 2.63734 7.62409 2.33154 8.0234 2.10573C8.42271 1.87992 8.86433 1.73896 9.32062 1.69168C9.77691 1.64439 10.2381 1.69179 10.6752 1.83092C11.1123 1.97005 11.516 2.19791 11.861 2.50024C12.2061 2.80256 12.485 3.17285 12.6803 3.58792C12.8756 4.003 12.9832 4.45392 12.9962 4.91247C13.0093 5.37102 12.9275 5.82732 12.7561 6.25283C12.5847 6.67833 12.3273 7.06388 12 7.38533" stroke="#666666" stroke-width="2" stroke-linecap="round" stroke-linejoin="round"/>
</svg>
