<svg width="24" height="24" viewBox="0 0 24 24" fill="none" xmlns="http://www.w3.org/2000/svg">
<g clip-path="url(#clip0_4035_18328)">
<path d="M19.9688 0H4.03125C0.147998 0 -3 3.148 -3 7.03125V22.9688C-3 26.852 0.147998 30 4.03125 30H19.9688C23.852 30 27 26.852 27 22.9688V7.03125C27 3.148 23.852 0 19.9688 0Z" fill="url(#paint0_radial_4035_18328)"/>
<path d="M19.9688 0H4.03125C0.147998 0 -3 2.8332 -3 6.32812V20.6719C-3 24.1668 0.147998 27 4.03125 27H19.9688C23.852 27 27 24.1668 27 20.6719V6.32812C27 2.8332 23.852 0 19.9688 0Z" fill="black"/>
<path d="M12.0011 0.28125C8.81848 0.28125 8.41898 0.295195 7.16906 0.352031C5.92148 0.409219 5.06988 0.60668 4.3248 0.896484C3.55395 1.19578 2.90016 1.59621 2.24883 2.24777C1.59691 2.89922 1.19648 3.55301 0.89625 4.32352C0.605625 5.06883 0.40793 5.92078 0.351797 7.16777C0.295898 8.41781 0.28125 8.81742 0.28125 12.0001C0.28125 15.1828 0.295313 15.581 0.352031 16.8309C0.409453 18.0785 0.606914 18.9301 0.896484 19.6752C1.19602 20.4461 1.59645 21.0998 2.24801 21.7512C2.89922 22.4031 3.55301 22.8045 4.32328 23.1038C5.06895 23.3936 5.92066 23.591 7.16801 23.6482C8.41805 23.705 8.81719 23.719 11.9996 23.719C15.1826 23.719 15.5808 23.705 16.8307 23.6482C18.0783 23.591 18.9308 23.3936 19.6765 23.1038C20.447 22.8045 21.0998 22.4031 21.7509 21.7512C22.4029 21.0998 22.8032 20.4461 23.1035 19.6755C23.3916 18.9301 23.5894 18.0783 23.648 16.8312C23.7041 15.5812 23.7188 15.1828 23.7188 12.0001C23.7188 8.81742 23.7041 8.41805 23.648 7.16801C23.5894 5.92043 23.3916 5.06895 23.1035 4.32387C22.8032 3.55301 22.4029 2.89922 21.7509 2.24777C21.0991 1.59598 20.4472 1.19555 19.6758 0.896601C18.9287 0.60668 18.0766 0.409102 16.8291 0.352031C15.579 0.295195 15.1811 0.28125 11.9974 0.28125H12.0011ZM10.9498 2.39309C11.2618 2.39262 11.61 2.39309 12.0011 2.39309C15.1301 2.39309 15.5009 2.40434 16.7365 2.46047C17.8791 2.51273 18.4992 2.70363 18.9123 2.86406C19.4592 3.07641 19.8491 3.33035 20.259 3.74063C20.6692 4.15078 20.923 4.54137 21.1359 5.08828C21.2964 5.50078 21.4875 6.12094 21.5395 7.26352C21.5957 8.49891 21.6079 8.86992 21.6079 11.9974C21.6079 15.1249 21.5957 15.4961 21.5395 16.7313C21.4873 17.8739 21.2964 18.4941 21.1359 18.9067C20.9236 19.4536 20.6692 19.843 20.259 20.2529C19.8489 20.6631 19.4595 20.9169 18.9123 21.1294C18.4997 21.2905 17.8791 21.4809 16.7365 21.5332C15.5011 21.5893 15.1301 21.6015 12.0011 21.6015C8.87191 21.6015 8.50102 21.5893 7.26574 21.5332C6.12316 21.4805 5.50301 21.2896 5.08957 21.1291C4.54277 20.9167 4.15207 20.6629 3.74191 20.2527C3.33176 19.8425 3.07793 19.4529 2.865 18.9057C2.70457 18.4931 2.51344 17.873 2.46141 16.7304C2.40527 15.495 2.39402 15.124 2.39402 11.9945C2.39402 8.865 2.40527 8.49598 2.46141 7.26059C2.51367 6.11801 2.70457 5.49785 2.865 5.08477C3.07746 4.53785 3.33176 4.14727 3.74203 3.73711C4.1523 3.32695 4.54277 3.07301 5.08969 2.8602C5.50277 2.69906 6.12316 2.50863 7.26574 2.45613C8.3468 2.40727 8.76574 2.39262 10.9498 2.39016V2.39309ZM18.2565 4.33887C17.4802 4.33887 16.8503 4.96816 16.8503 5.74465C16.8503 6.52102 17.4802 7.1509 18.2565 7.1509C19.0329 7.1509 19.6628 6.52102 19.6628 5.74465C19.6628 4.96828 19.0329 4.3384 18.2565 4.3384V4.33887ZM12.0011 5.98195C8.67762 5.98195 5.98301 8.67656 5.98301 12.0001C5.98301 15.3237 8.67762 18.017 12.0011 18.017C15.3246 18.017 18.0183 15.3237 18.0183 12.0001C18.0183 8.67668 15.3244 5.98195 12.0008 5.98195H12.0011ZM12.0011 8.09379C14.1584 8.09379 15.9074 9.84258 15.9074 12.0001C15.9074 14.1574 14.1584 15.9064 12.0011 15.9064C9.84375 15.9064 8.09484 14.1574 8.09484 12.0001C8.09484 9.84258 9.84363 8.09379 12.0011 8.09379Z" fill="white"/>
</g>
<defs>
<radialGradient id="paint0_radial_4035_18328" cx="0" cy="0" r="1" gradientUnits="userSpaceOnUse" gradientTransform="translate(4.96875 32.3106) rotate(-90) scale(29.7322 27.6533)">
<stop stop-color="#FFDD55"/>
<stop offset="0.1" stop-color="#FFDD55"/>
<stop offset="0.5" stop-color="#FF543E"/>
<stop offset="1" stop-color="#C837AB"/>
</radialGradient>
<clipPath id="clip0_4035_18328">
<rect width="24" height="24" fill="white"/>
</clipPath>
</defs>
</svg>
