<svg width="27" height="29" viewBox="0 0 27 29" fill="none" xmlns="http://www.w3.org/2000/svg">
<path d="M25 2.5H27V0.5H25V2.5ZM25 21L26.029 22.715C26.6314 22.3535 27 21.7025 27 21H25ZM15 27V29C15.3625 29 15.7182 28.9015 16.029 28.715L15 27ZM10.5 27L9.64841 28.8096C9.9148 28.935 10.2056 29 10.5 29V27ZM2 23H0C0 23.7747 0.447421 24.4798 1.14841 24.8096L2 23ZM2 7L0.585786 5.58579C0.210714 5.96086 0 6.46957 0 7H2ZM6.5 2.5V0.5C5.96957 0.5 5.46086 0.710714 5.08579 1.08579L6.5 2.5ZM8 7.5C6.89543 7.5 6 8.39543 6 9.5C6 10.6046 6.89543 11.5 8 11.5V7.5ZM17.5 11.5C18.6046 11.5 19.5 10.6046 19.5 9.5C19.5 8.39543 18.6046 7.5 17.5 7.5V11.5ZM17 18C18.1046 18 19 17.1046 19 16C19 14.8954 18.1046 14 17 14V18ZM8.5 14C7.39543 14 6.5 14.8954 6.5 16C6.5 17.1046 7.39543 18 8.5 18V14ZM23 2.5V21H27V2.5H23ZM23.971 19.285L13.971 25.285L16.029 28.715L26.029 22.715L23.971 19.285ZM15 25H10.5V29H15V25ZM11.3516 25.1904L2.85159 21.1904L1.14841 24.8096L9.64841 28.8096L11.3516 25.1904ZM4 23V7H0V23H4ZM3.41421 8.41421L7.91421 3.91421L5.08579 1.08579L0.585786 5.58579L3.41421 8.41421ZM6.5 4.5H25V0.5H6.5V4.5ZM8 11.5H17.5V7.5H8V11.5ZM17 14H8.5V18H17V14Z" fill="white"/>
</svg>
