<svg width="24" height="25" viewBox="0 0 24 25" fill="none" xmlns="http://www.w3.org/2000/svg">
<path d="M18.8436 2.1125C17.8593 0.97431 17.3167 -0.487126 17.3169 -2H12.8662V16.0833C12.8326 17.0622 12.4248 17.9895 11.7288 18.6697C11.0328 19.3499 10.1031 19.7298 9.13578 19.7292C7.09051 19.7292 5.39093 18.0375 5.39093 15.9375C5.39093 13.4292 7.78187 11.5479 10.2448 12.3208V7.7125C5.2757 7.04167 0.925903 10.95 0.925903 15.9375C0.925903 20.7938 4.90121 24.25 9.12138 24.25C13.644 24.25 17.3169 20.5313 17.3169 15.9375V6.76458C19.1216 8.07687 21.2884 8.78094 23.5103 8.77708V4.27083C23.5103 4.27083 20.8025 4.40208 18.8436 2.1125Z" fill="white"/>
</svg>
