<svg width="22" height="22" viewBox="0 0 22 22" fill="none" xmlns="http://www.w3.org/2000/svg">
<path d="M10.9997 0.333252C12.4142 0.333252 13.7707 0.895155 14.7709 1.89535C15.7711 2.89554 16.333 4.2521 16.333 5.66659C16.333 7.08107 15.7711 8.43763 14.7709 9.43782C13.7707 10.438 12.4142 10.9999 10.9997 10.9999C9.58519 10.9999 8.22863 10.438 7.22844 9.43782C6.22824 8.43763 5.66634 7.08107 5.66634 5.66659C5.66634 4.2521 6.22824 2.89554 7.22844 1.89535C8.22863 0.895155 9.58519 0.333252 10.9997 0.333252ZM10.9997 13.6666C16.893 13.6666 21.6663 16.0533 21.6663 18.9999V21.6666H0.333008V18.9999C0.333008 16.0533 5.10634 13.6666 10.9997 13.6666Z" fill="white"/>
</svg>
