<svg width="32" height="22" viewBox="0 0 32 22" fill="none" xmlns="http://www.w3.org/2000/svg">
<g clip-path="url(#clip0_4035_18323)">
<path d="M30.9625 3.42941C30.7809 2.76656 30.4266 2.16226 29.935 1.67669C29.4434 1.19112 28.8316 0.841213 28.1604 0.661819C25.7034 0 15.8148 0 15.8148 0C15.8148 0 5.92572 0.0200329 3.46872 0.681852C2.79758 0.861256 2.18573 1.21118 1.69411 1.69678C1.20248 2.18237 0.84824 2.7867 0.666652 3.44957C-0.0765334 7.76129 -0.364829 14.3313 0.687059 18.4706C0.868666 19.1334 1.22292 19.7377 1.71454 20.2233C2.20616 20.7089 2.818 21.0588 3.48913 21.2382C5.94613 21.9 15.835 21.9 15.835 21.9C15.835 21.9 25.7237 21.9 28.1806 21.2382C28.8518 21.0588 29.4636 20.7089 29.9553 20.2233C30.4469 19.7378 30.8012 19.1335 30.9828 18.4706C31.7667 14.1528 32.0082 7.58673 30.9625 3.42941Z" fill="white"/>
<path d="M12 15.6717L21.3274 10.3358L12 5V15.6717Z" fill="black"/>
</g>
<defs>
<clipPath id="clip0_4035_18323">
<rect width="32" height="22" fill="white"/>
</clipPath>
</defs>
</svg>
