<svg width="27" height="27" viewBox="0 0 27 27" fill="none" xmlns="http://www.w3.org/2000/svg">
<path d="M25.9468 8.24515C25.2878 6.67239 24.3291 5.24285 23.1242 4.0362C21.9228 2.82747 20.4957 1.86645 18.924 1.20771C17.3139 0.529601 15.5839 0.182008 13.8368 0.185574H13.7781C12.0011 0.194386 10.2829 0.546845 8.6645 1.24002C7.10625 1.90552 5.6926 2.86824 4.50253 4.07438C3.30925 5.27831 2.36155 6.70285 1.71223 8.26865C1.0382 9.89691 0.696665 11.6435 0.707718 13.4057C0.71653 15.4441 1.2041 17.4678 2.11462 19.2771V23.7416C2.11462 24.4877 2.71968 25.0927 3.46278 25.0927H7.92139C9.73912 26.01 11.745 26.4926 13.781 26.5026H13.8427C15.5991 26.5026 17.2998 26.1619 18.9035 25.4951C20.4672 24.8442 21.889 23.8944 23.0889 22.6989C24.299 21.4976 25.2507 20.0937 25.9174 18.5282C26.6076 16.9068 26.9601 15.1827 26.9689 13.4028C26.9748 11.6141 26.6282 9.87821 25.9468 8.24515ZM7.97426 14.7539C7.19885 14.7539 6.56736 14.1224 6.56736 13.3441C6.56736 12.5657 7.19885 11.9342 7.97426 11.9342C8.74967 11.9342 9.38116 12.5657 9.38116 13.3441C9.38116 14.1224 8.75261 14.7539 7.97426 14.7539ZM13.8368 14.7539C13.0614 14.7539 12.4299 14.1224 12.4299 13.3441C12.4299 12.5657 13.0614 11.9342 13.8368 11.9342C14.6123 11.9342 15.2437 12.5657 15.2437 13.3441C15.2437 14.1224 14.6123 14.7539 13.8368 14.7539ZM19.6994 14.7539C18.924 14.7539 18.2925 14.1224 18.2925 13.3441C18.2925 12.5657 18.924 11.9342 19.6994 11.9342C20.4748 11.9342 21.1063 12.5657 21.1063 13.3441C21.1063 14.1224 20.4748 14.7539 19.6994 14.7539Z" fill="#DEDCDC"/>
</svg>
