<svg width="13" height="13" viewBox="0 0 13 13" fill="none" xmlns="http://www.w3.org/2000/svg">
<path d="M12.0087 6.72227L7.00866 11.6743L2.00866 6.72227C1.67887 6.40135 1.41909 6.01561 1.2457 5.58936C1.0723 5.16311 0.989039 4.70557 1.00116 4.24556C1.01327 3.78555 1.12051 3.33303 1.3161 2.9165C1.5117 2.49996 1.79142 2.12844 2.13766 1.82532C2.48389 1.52221 2.88913 1.29406 3.32787 1.15526C3.76661 1.01645 4.22933 0.969994 4.68691 1.01881C5.14448 1.06762 5.587 1.21064 5.98658 1.43888C6.38616 1.66711 6.73416 1.97561 7.00866 2.34494C7.28435 1.97829 7.63276 1.67249 8.03206 1.44667C8.43137 1.22086 8.87299 1.0799 9.32929 1.03262C9.78558 0.985332 10.2467 1.03274 10.6838 1.17187C11.121 1.311 11.5247 1.53885 11.8697 1.84118C12.2147 2.14351 12.4936 2.51379 12.6889 2.92887C12.8843 3.34394 12.9918 3.79486 13.0049 4.25341C13.0179 4.71196 12.9362 5.16827 12.7648 5.59377C12.5933 6.01928 12.3359 6.40482 12.0087 6.72627" stroke="#FF6F00" stroke-width="2" stroke-linecap="round" stroke-linejoin="round"/>
</svg>
