<svg width="107" height="87" viewBox="0 0 107 87" fill="none" xmlns="http://www.w3.org/2000/svg">
<path fill-rule="evenodd" clip-rule="evenodd" d="M68.8148 18.3008C64.4005 17.1588 59.771 16.5512 54.9996 16.5512C26.9313 16.5512 3.77377 37.5769 0.417898 64.7373C0.142317 62.6977 0 60.6157 0 58.5005C0 33.016 20.6593 12.3568 46.1438 12.3568C54.3836 12.3568 62.1191 14.5165 68.8148 18.3008Z" fill="#FF6A0C"/>
<path fill-rule="evenodd" clip-rule="evenodd" d="M101.383 59.0907C99.7027 54.8512 97.4641 50.7531 94.6509 46.8986C78.1038 24.2266 47.4684 17.9164 23.5513 31.2175C25.0364 29.7924 26.6343 28.45 28.3429 27.2029C48.9279 12.1791 77.7946 16.6873 92.8185 37.2723C97.6765 43.9285 100.492 51.4506 101.383 59.0907Z" fill="#828788"/>
</svg>
